<?xml version="1.0" encoding="UTF-8" standalone="no"?><!DOCTYPE svg PUBLIC "-//W3C//DTD SVG 1.1//EN" "http://www.w3.org/Graphics/SVG/1.1/DTD/svg11.dtd"><svg width="100%" height="100%" viewBox="0 0 2521 734" version="1.1" xmlns="http://www.w3.org/2000/svg" xmlns:xlink="http://www.w3.org/1999/xlink" xml:space="preserve" xmlns:serif="http://www.serif.com/" style="fill-rule:evenodd;clip-rule:evenodd;stroke-linejoin:round;stroke-miterlimit:2;"><g id="logo_white_slogan"><g id="slogan_black"><path d="M55.548,581.901c10.07,-0 19.187,2.279 27.351,6.838c8.165,4.558 14.56,10.988 19.187,19.288c4.627,8.301 6.94,17.758 6.94,28.372c-0,10.75 -2.313,20.275 -6.94,28.576c-4.627,8.301 -10.988,14.73 -19.085,19.289c-8.096,4.558 -17.247,6.838 -27.453,6.838c-8.709,-0 -16.567,-1.803 -23.575,-5.409c-7.008,-3.606 -12.757,-8.879 -17.248,-15.819l0,59.805l-14.492,0l0,-146.962l13.88,0l0,21.228c4.354,-7.076 10.104,-12.519 17.248,-16.329c7.144,-3.81 15.206,-5.715 24.187,-5.715Zm-1.02,96.342c7.484,-0 14.288,-1.735 20.411,-5.205c6.123,-3.47 10.92,-8.403 14.39,-14.799c3.47,-6.395 5.205,-13.675 5.205,-21.84c-0,-8.164 -1.735,-15.41 -5.205,-21.738c-3.47,-6.327 -8.267,-11.26 -14.39,-14.798c-6.123,-3.538 -12.927,-5.307 -20.411,-5.307c-7.621,-0 -14.458,1.769 -20.514,5.307c-6.055,3.538 -10.818,8.471 -14.288,14.798c-3.47,6.328 -5.205,13.574 -5.205,21.738c0,8.165 1.735,15.445 5.205,21.84c3.47,6.396 8.233,11.329 14.288,14.799c6.056,3.47 12.893,5.205 20.514,5.205Z" style="fill-rule:nonzero;"/><path d="M168.831,691.102c-9.661,-0 -17.111,-2.722 -22.35,-8.165c-5.239,-5.443 -7.859,-12.995 -7.859,-22.656l0,-121.652l14.492,-0l0,120.427c0,6.395 1.497,11.26 4.491,14.594c2.994,3.334 7.484,5.001 13.471,5.001c3.811,-0 7.076,-0.613 9.798,-1.837l1.021,12.042c-4.219,1.497 -8.573,2.246 -13.064,2.246Z" style="fill-rule:nonzero;"/><path d="M297.627,582.717l-0,107.364l-13.88,0l0,-21.228c-4.354,7.212 -10.103,12.723 -17.247,16.533c-7.144,3.811 -15.207,5.716 -24.188,5.716c-10.069,-0 -19.187,-2.314 -27.351,-6.94c-8.165,-4.627 -14.56,-11.09 -19.187,-19.391c-4.626,-8.301 -6.94,-17.758 -6.94,-28.372c0,-10.614 2.314,-20.071 6.94,-28.372c4.627,-8.3 11.022,-14.73 19.187,-19.288c8.164,-4.559 17.282,-6.838 27.351,-6.838c8.709,-0 16.567,1.803 23.575,5.409c7.008,3.606 12.757,8.879 17.248,15.819l-0,-20.412l14.492,0Zm-54.09,95.526c7.484,-0 14.254,-1.735 20.309,-5.205c6.056,-3.47 10.818,-8.403 14.288,-14.799c3.47,-6.395 5.205,-13.675 5.205,-21.84c0,-8.164 -1.735,-15.444 -5.205,-21.84c-3.47,-6.396 -8.232,-11.328 -14.288,-14.798c-6.055,-3.47 -12.825,-5.205 -20.309,-5.205c-7.62,-0 -14.458,1.735 -20.514,5.205c-6.055,3.47 -10.818,8.402 -14.288,14.798c-3.469,6.396 -5.204,13.676 -5.204,21.84c-0,8.165 1.735,15.445 5.204,21.84c3.47,6.396 8.233,11.329 14.288,14.799c6.056,3.47 12.894,5.205 20.514,5.205Z" style="fill-rule:nonzero;"/><path d="M392.744,581.901c13.471,-0 24.187,3.912 32.148,11.736c7.96,7.825 11.941,19.221 11.941,34.189l-0,62.255l-14.493,0l0,-60.826c0,-11.158 -2.789,-19.663 -8.368,-25.514c-5.579,-5.851 -13.54,-8.777 -23.882,-8.777c-11.566,0 -20.717,3.436 -27.453,10.308c-6.736,6.872 -10.103,16.363 -10.103,28.474l-0,56.335l-14.493,0l0,-107.364l13.88,0l0,19.799c3.946,-6.531 9.423,-11.6 16.431,-15.206c7.008,-3.606 15.139,-5.409 24.392,-5.409Z" style="fill-rule:nonzero;"/><path d="M530.929,581.901c13.471,-0 24.187,3.912 32.148,11.736c7.96,7.825 11.94,19.221 11.94,34.189l0,62.255l-14.492,0l0,-60.826c0,-11.158 -2.789,-19.663 -8.368,-25.514c-5.579,-5.851 -13.54,-8.777 -23.882,-8.777c-11.566,0 -20.717,3.436 -27.453,10.308c-6.736,6.872 -10.103,16.363 -10.103,28.474l-0,56.335l-14.493,0l0,-107.364l13.88,0l0,19.799c3.946,-6.531 9.423,-11.6 16.431,-15.206c7.008,-3.606 15.139,-5.409 24.392,-5.409Z" style="fill-rule:nonzero;"/><path d="M614.411,582.717l14.493,0l-0,107.364l-14.493,0l0,-107.364Zm7.349,-23.473c-2.994,0 -5.512,-1.02 -7.553,-3.061c-2.041,-2.042 -3.061,-4.491 -3.061,-7.349c-0,-2.721 1.02,-5.102 3.061,-7.144c2.041,-2.041 4.559,-3.061 7.553,-3.061c2.993,-0 5.511,0.986 7.552,2.959c2.041,1.973 3.061,4.321 3.061,7.042c0,2.994 -1.02,5.511 -3.061,7.553c-2.041,2.041 -4.559,3.061 -7.552,3.061Z" style="fill-rule:nonzero;"/><path d="M724.02,581.901c13.472,-0 24.188,3.912 32.148,11.736c7.961,7.825 11.941,19.221 11.941,34.189l0,62.255l-14.492,0l-0,-60.826c-0,-11.158 -2.79,-19.663 -8.369,-25.514c-5.579,-5.851 -13.539,-8.777 -23.881,-8.777c-11.566,0 -20.718,3.436 -27.453,10.308c-6.736,6.872 -10.104,16.363 -10.104,28.474l0,56.335l-14.492,0l0,-107.364l13.88,0l-0,19.799c3.946,-6.531 9.423,-11.6 16.431,-15.206c7.008,-3.606 15.138,-5.409 24.391,-5.409Z" style="fill-rule:nonzero;"/><path d="M907.315,582.717l-0,94.301c-0,18.234 -4.457,31.74 -13.37,40.516c-8.913,8.777 -22.35,13.166 -40.312,13.166c-9.934,-0 -19.357,-1.463 -28.27,-4.389c-8.913,-2.925 -16.159,-6.974 -21.738,-12.144l7.348,-11.023c5.171,4.627 11.464,8.233 18.88,10.818c7.417,2.586 15.207,3.879 23.371,3.879c13.608,-0 23.61,-3.164 30.005,-9.492c6.396,-6.327 9.594,-16.159 9.594,-29.494l-0,-13.676c-4.491,6.804 -10.376,11.975 -17.656,15.513c-7.28,3.538 -15.343,5.307 -24.188,5.307c-10.069,-0 -19.22,-2.211 -27.453,-6.634c-8.233,-4.422 -14.696,-10.614 -19.391,-18.574c-4.695,-7.961 -7.042,-16.976 -7.042,-27.045c0,-10.07 2.347,-19.051 7.042,-26.943c4.695,-7.893 11.124,-14.016 19.289,-18.371c8.164,-4.354 17.35,-6.531 27.555,-6.531c9.117,-0 17.35,1.837 24.698,5.511c7.348,3.674 13.267,8.981 17.758,15.921l-0,-20.616l13.88,0Zm-54.907,90.423c7.756,-0 14.764,-1.667 21.024,-5.001c6.259,-3.334 11.124,-7.995 14.594,-13.982c3.47,-5.987 5.205,-12.791 5.205,-20.411c-0,-7.621 -1.735,-14.39 -5.205,-20.31c-3.47,-5.919 -8.301,-10.545 -14.492,-13.879c-6.192,-3.334 -13.234,-5.001 -21.126,-5.001c-7.756,-0 -14.73,1.633 -20.922,4.899c-6.191,3.265 -11.022,7.892 -14.492,13.879c-3.47,5.988 -5.205,12.791 -5.205,20.412c0,7.62 1.735,14.424 5.205,20.411c3.47,5.987 8.301,10.648 14.492,13.982c6.192,3.334 13.166,5.001 20.922,5.001Z" style="fill-rule:nonzero;"/><path d="M949.362,691.102c-2.994,-0 -5.545,-1.089 -7.654,-3.266c-2.109,-2.177 -3.164,-4.831 -3.164,-7.961c-0,-3.129 1.055,-5.749 3.164,-7.858c2.109,-2.109 4.66,-3.164 7.654,-3.164c2.994,0 5.579,1.055 7.756,3.164c2.178,2.109 3.266,4.729 3.266,7.858c0,3.13 -1.088,5.784 -3.266,7.961c-2.177,2.177 -4.762,3.266 -7.756,3.266Z" style="fill-rule:nonzero;"/><path d="M1097.55,683.549c-2.722,2.45 -6.056,4.321 -10.002,5.614c-3.946,1.292 -8.097,1.939 -12.451,1.939c-10.07,-0 -17.826,-2.722 -23.269,-8.165c-5.443,-5.443 -8.164,-13.131 -8.164,-23.065l-0,-100.628l14.492,0l-0,23.473l32.454,0l-0,12.247l-32.454,0l-0,64.092c-0,6.395 1.564,11.26 4.694,14.594c3.13,3.334 7.689,5.001 13.676,5.001c6.531,-0 11.838,-1.837 15.921,-5.511l5.103,10.409Z" style="fill-rule:nonzero;"/><path d="M1163.88,691.102c-10.341,-0 -19.662,-2.348 -27.963,-7.042c-8.301,-4.695 -14.832,-11.192 -19.595,-19.493c-4.763,-8.301 -7.144,-17.69 -7.144,-28.168c0,-10.478 2.381,-19.867 7.144,-28.167c4.763,-8.301 11.294,-14.765 19.595,-19.391c8.301,-4.627 17.622,-6.94 27.963,-6.94c10.342,-0 19.663,2.313 27.964,6.94c8.301,4.626 14.798,11.09 19.493,19.391c4.695,8.3 7.042,17.689 7.042,28.167c-0,10.478 -2.347,19.867 -7.042,28.168c-4.695,8.301 -11.192,14.798 -19.493,19.493c-8.301,4.694 -17.622,7.042 -27.964,7.042Zm0,-12.859c7.621,-0 14.459,-1.735 20.514,-5.205c6.055,-3.47 10.784,-8.403 14.186,-14.799c3.402,-6.395 5.103,-13.675 5.103,-21.84c-0,-8.164 -1.701,-15.444 -5.103,-21.84c-3.402,-6.396 -8.131,-11.328 -14.186,-14.798c-6.055,-3.47 -12.893,-5.205 -20.514,-5.205c-7.62,-0 -14.458,1.735 -20.513,5.205c-6.055,3.47 -10.818,8.402 -14.288,14.798c-3.47,6.396 -5.205,13.676 -5.205,21.84c0,8.165 1.735,15.445 5.205,21.84c3.47,6.396 8.233,11.329 14.288,14.799c6.055,3.47 12.893,5.205 20.513,5.205Z" style="fill-rule:nonzero;"/><path d="M1291.87,691.102c-10.342,-0 -19.663,-2.348 -27.964,-7.042c-8.3,-4.695 -14.832,-11.192 -19.595,-19.493c-4.762,-8.301 -7.144,-17.69 -7.144,-28.168c0,-10.478 2.382,-19.867 7.144,-28.167c4.763,-8.301 11.295,-14.765 19.595,-19.391c8.301,-4.627 17.622,-6.94 27.964,-6.94c10.342,-0 19.663,2.313 27.963,6.94c8.301,4.626 14.799,11.09 19.493,19.391c4.695,8.3 7.042,17.689 7.042,28.167c0,10.478 -2.347,19.867 -7.042,28.168c-4.694,8.301 -11.192,14.798 -19.493,19.493c-8.3,4.694 -17.621,7.042 -27.963,7.042Zm-0,-12.859c7.62,-0 14.458,-1.735 20.513,-5.205c6.056,-3.47 10.784,-8.403 14.186,-14.799c3.402,-6.395 5.103,-13.675 5.103,-21.84c-0,-8.164 -1.701,-15.444 -5.103,-21.84c-3.402,-6.396 -8.13,-11.328 -14.186,-14.798c-6.055,-3.47 -12.893,-5.205 -20.513,-5.205c-7.62,-0 -14.458,1.735 -20.514,5.205c-6.055,3.47 -10.818,8.402 -14.288,14.798c-3.47,6.396 -5.204,13.676 -5.204,21.84c-0,8.165 1.734,15.445 5.204,21.84c3.47,6.396 8.233,11.329 14.288,14.799c6.056,3.47 12.894,5.205 20.514,5.205Z" style="fill-rule:nonzero;"/><path d="M1406.17,691.102c-9.661,-0 -17.111,-2.722 -22.35,-8.165c-5.239,-5.443 -7.858,-12.995 -7.858,-22.656l-0,-121.652l14.492,-0l-0,120.427c-0,6.395 1.497,11.26 4.49,14.594c2.994,3.334 7.484,5.001 13.472,5.001c3.81,-0 7.076,-0.613 9.797,-1.837l1.021,12.042c-4.219,1.497 -8.573,2.246 -13.064,2.246Z" style="fill-rule:nonzero;"/><path d="M1467.81,691.102c-8.709,-0 -17.044,-1.259 -25.004,-3.776c-7.961,-2.518 -14.186,-5.682 -18.677,-9.492l6.532,-11.43c4.491,3.538 10.138,6.429 16.942,8.675c6.803,2.245 13.879,3.368 21.227,3.368c9.798,-0 17.044,-1.531 21.738,-4.593c4.695,-3.062 7.042,-7.382 7.042,-12.961c0,-3.946 -1.292,-7.042 -3.878,-9.287c-2.585,-2.246 -5.851,-3.947 -9.797,-5.103c-3.946,-1.157 -9.185,-2.279 -15.717,-3.368c-8.709,-1.633 -15.717,-3.3 -21.024,-5.001c-5.307,-1.701 -9.831,-4.592 -13.573,-8.675c-3.742,-4.082 -5.613,-9.729 -5.613,-16.941c-0,-8.981 3.742,-16.329 11.226,-22.044c7.484,-5.716 17.894,-8.573 31.229,-8.573c6.94,-0 13.88,0.918 20.82,2.755c6.94,1.837 12.655,4.253 17.145,7.246l-6.327,11.635c-8.845,-6.124 -19.391,-9.185 -31.638,-9.185c-9.253,-0 -16.227,1.633 -20.921,4.899c-4.695,3.265 -7.042,7.552 -7.042,12.859c-0,4.082 1.326,7.348 3.98,9.797c2.653,2.449 5.953,4.252 9.899,5.409c3.947,1.157 9.39,2.347 16.33,3.572c8.572,1.633 15.444,3.266 20.615,4.899c5.171,1.633 9.593,4.422 13.267,8.369c3.674,3.946 5.511,9.389 5.511,16.329c0,9.389 -3.912,16.839 -11.736,22.35c-7.824,5.511 -18.676,8.267 -32.556,8.267Z" style="fill-rule:nonzero;"/><path d="M1540.27,691.102c-2.994,-0 -5.545,-1.089 -7.654,-3.266c-2.109,-2.177 -3.164,-4.831 -3.164,-7.961c0,-3.129 1.055,-5.749 3.164,-7.858c2.109,-2.109 4.66,-3.164 7.654,-3.164c2.994,0 5.579,1.055 7.756,3.164c2.178,2.109 3.266,4.729 3.266,7.858c0,3.13 -1.088,5.784 -3.266,7.961c-2.177,2.177 -4.762,3.266 -7.756,3.266Z" style="fill-rule:nonzero;"/><path d="M1769.49,581.901c13.471,-0 24.051,3.878 31.74,11.634c7.688,7.757 11.532,19.187 11.532,34.291l-0,62.255l-14.492,0l-0,-60.826c-0,-11.158 -2.688,-19.663 -8.063,-25.514c-5.375,-5.851 -12.961,-8.777 -22.758,-8.777c-11.159,0 -19.935,3.436 -26.331,10.308c-6.396,6.872 -9.593,16.363 -9.593,28.474l-0,56.335l-14.492,0l-0,-60.826c-0,-11.158 -2.688,-19.663 -8.063,-25.514c-5.375,-5.851 -13.029,-8.777 -22.963,-8.777c-11.022,0 -19.765,3.436 -26.228,10.308c-6.464,6.872 -9.696,16.363 -9.696,28.474l0,56.335l-14.492,0l0,-107.364l13.88,0l-0,19.595c3.81,-6.531 9.117,-11.566 15.921,-15.104c6.804,-3.538 14.628,-5.307 23.473,-5.307c8.981,-0 16.771,1.905 23.371,5.715c6.6,3.81 11.532,9.457 14.798,16.941c3.946,-7.075 9.628,-12.621 17.044,-16.635c7.416,-4.014 15.887,-6.021 25.412,-6.021Z" style="fill-rule:nonzero;"/><path d="M1896.45,691.102c-10.342,-0 -19.663,-2.348 -27.964,-7.042c-8.301,-4.695 -14.832,-11.192 -19.595,-19.493c-4.763,-8.301 -7.144,-17.69 -7.144,-28.168c0,-10.478 2.381,-19.867 7.144,-28.167c4.763,-8.301 11.294,-14.765 19.595,-19.391c8.301,-4.627 17.622,-6.94 27.964,-6.94c10.341,-0 19.662,2.313 27.963,6.94c8.301,4.626 14.798,11.09 19.493,19.391c4.695,8.3 7.042,17.689 7.042,28.167c-0,10.478 -2.347,19.867 -7.042,28.168c-4.695,8.301 -11.192,14.798 -19.493,19.493c-8.301,4.694 -17.622,7.042 -27.963,7.042Zm-0,-12.859c7.62,-0 14.458,-1.735 20.513,-5.205c6.055,-3.47 10.784,-8.403 14.186,-14.799c3.402,-6.395 5.103,-13.675 5.103,-21.84c-0,-8.164 -1.701,-15.444 -5.103,-21.84c-3.402,-6.396 -8.131,-11.328 -14.186,-14.798c-6.055,-3.47 -12.893,-5.205 -20.513,-5.205c-7.621,-0 -14.459,1.735 -20.514,5.205c-6.055,3.47 -10.818,8.402 -14.288,14.798c-3.47,6.396 -5.205,13.676 -5.205,21.84c0,8.165 1.735,15.445 5.205,21.84c3.47,6.396 8.233,11.329 14.288,14.799c6.055,3.47 12.893,5.205 20.514,5.205Z" style="fill-rule:nonzero;"/><path d="M2035.86,581.901c10.07,-0 19.187,2.279 27.351,6.838c8.165,4.558 14.561,10.988 19.187,19.288c4.627,8.301 6.94,17.758 6.94,28.372c-0,10.614 -2.313,20.071 -6.94,28.372c-4.626,8.301 -11.022,14.764 -19.187,19.391c-8.164,4.626 -17.281,6.94 -27.351,6.94c-8.981,-0 -17.043,-1.905 -24.187,-5.716c-7.144,-3.81 -12.893,-9.321 -17.248,-16.533l0,21.228l-13.88,0l0,-151.452l14.492,-0l0,64.5c4.491,-6.94 10.24,-12.213 17.248,-15.819c7.008,-3.606 14.866,-5.409 23.575,-5.409Zm-1.02,96.342c7.484,-0 14.288,-1.735 20.411,-5.205c6.123,-3.47 10.92,-8.403 14.39,-14.799c3.47,-6.395 5.205,-13.675 5.205,-21.84c-0,-8.164 -1.735,-15.444 -5.205,-21.84c-3.47,-6.396 -8.267,-11.328 -14.39,-14.798c-6.123,-3.47 -12.927,-5.205 -20.411,-5.205c-7.621,-0 -14.458,1.735 -20.514,5.205c-6.055,3.47 -10.818,8.402 -14.288,14.798c-3.47,6.396 -5.205,13.676 -5.205,21.84c0,8.165 1.735,15.445 5.205,21.84c3.47,6.396 8.233,11.329 14.288,14.799c6.056,3.47 12.893,5.205 20.514,5.205Z" style="fill-rule:nonzero;"/><path d="M2118.93,582.717l14.493,0l-0,107.364l-14.493,0l0,-107.364Zm7.349,-23.473c-2.994,0 -5.512,-1.02 -7.553,-3.061c-2.041,-2.042 -3.061,-4.491 -3.061,-7.349c-0,-2.721 1.02,-5.102 3.061,-7.144c2.041,-2.041 4.559,-3.061 7.553,-3.061c2.993,-0 5.511,0.986 7.552,2.959c2.041,1.973 3.061,4.321 3.061,7.042c0,2.994 -1.02,5.511 -3.061,7.553c-2.041,2.041 -4.559,3.061 -7.552,3.061Z" style="fill-rule:nonzero;"/><path d="M2204.05,691.102c-9.662,-0 -17.112,-2.722 -22.351,-8.165c-5.238,-5.443 -7.858,-12.995 -7.858,-22.656l0,-121.652l14.492,-0l0,120.427c0,6.395 1.497,11.26 4.491,14.594c2.993,3.334 7.484,5.001 13.471,5.001c3.81,-0 7.076,-0.613 9.798,-1.837l1.02,12.042c-4.218,1.497 -8.573,2.246 -13.063,2.246Z" style="fill-rule:nonzero;"/><path d="M2236.91,582.717l14.492,0l0,107.364l-14.492,0l0,-107.364Zm7.348,-23.473c-2.993,0 -5.511,-1.02 -7.552,-3.061c-2.041,-2.042 -3.062,-4.491 -3.062,-7.349c0,-2.721 1.021,-5.102 3.062,-7.144c2.041,-2.041 4.559,-3.061 7.552,-3.061c2.994,-0 5.511,0.986 7.552,2.959c2.042,1.973 3.062,4.321 3.062,7.042c0,2.994 -1.02,5.511 -3.062,7.553c-2.041,2.041 -4.558,3.061 -7.552,3.061Z" style="fill-rule:nonzero;"/><path d="M2344.68,683.549c-2.721,2.45 -6.055,4.321 -10.001,5.614c-3.947,1.292 -8.097,1.939 -12.451,1.939c-10.07,-0 -17.826,-2.722 -23.269,-8.165c-5.443,-5.443 -8.165,-13.131 -8.165,-23.065l0,-100.628l14.492,0l0,23.473l32.454,0l0,12.247l-32.454,0l0,64.092c0,6.395 1.565,11.26 4.695,14.594c3.13,3.334 7.688,5.001 13.676,5.001c6.531,-0 11.838,-1.837 15.92,-5.511l5.103,10.409Z" style="fill-rule:nonzero;"/><path d="M2467.76,582.717l-0,94.301c-0,18.234 -4.151,31.74 -12.451,40.516c-8.301,8.777 -20.82,13.166 -37.557,13.166c-9.389,-0 -18.268,-1.463 -26.637,-4.389c-8.369,-2.925 -15.138,-6.974 -20.309,-12.144l7.348,-11.023c4.626,4.627 10.342,8.233 17.145,10.818c6.804,2.586 14.084,3.879 21.841,3.879c12.382,-0 21.5,-3.164 27.351,-9.492c5.851,-6.327 8.777,-16.159 8.777,-29.494l-0,-12.451c-3.81,6.259 -9.015,11.09 -15.615,14.492c-6.6,3.402 -14.05,5.103 -22.35,5.103c-14.016,-0 -25.072,-3.912 -33.169,-11.737c-8.096,-7.824 -12.145,-19.288 -12.145,-34.393l0,-57.152l14.492,0l0,55.723c0,11.295 2.79,19.867 8.369,25.719c5.579,5.851 13.54,8.777 23.881,8.777c11.295,-0 20.208,-3.436 26.739,-10.308c6.532,-6.872 9.798,-16.431 9.798,-28.678l-0,-51.233l14.492,0Z" style="fill-rule:nonzero;"/><path d="M2509.81,691.102c-2.993,-0 -5.545,-1.089 -7.654,-3.266c-2.109,-2.177 -3.164,-4.831 -3.164,-7.961c0,-3.129 1.055,-5.749 3.164,-7.858c2.109,-2.109 4.661,-3.164 7.654,-3.164c2.994,0 5.579,1.055 7.757,3.164c2.177,2.109 3.265,4.729 3.265,7.858c0,3.13 -1.088,5.784 -3.265,7.961c-2.178,2.177 -4.763,3.266 -7.757,3.266Z" style="fill-rule:nonzero;"/></g><g id="logo_black"><rect id="centering_for_black" x="0.233" y="2.551" width="2520.6" height="510.933" style="fill:none;"/><g id="platomo_black"><path d="M177.833,93.917c31.2,0 59.1,6.8 83.7,20.4c24.6,13.6 43.9,32.8 57.9,57.6c14,24.8 21,53.4 21,85.8c0,32.4 -7,61.1 -21,86.1c-14,25 -33.3,44.3 -57.9,57.9c-24.6,13.6 -52.5,20.4 -83.7,20.4c-43.2,0 -77.4,-14.4 -102.6,-43.2l0,134.567l-75,-0l0,-415.967l71.4,0l0,42c12.4,-15.2 27.7,-26.6 45.9,-34.2c18.2,-7.6 38.3,-11.4 60.3,-11.4Zm-8.4,264c27.6,0 50.3,-9.2 68.1,-27.6c17.8,-18.4 26.7,-42.6 26.7,-72.6c0,-30 -8.9,-54.2 -26.7,-72.6c-17.8,-18.4 -40.5,-27.6 -68.1,-27.6c-18,0 -34.2,4.1 -48.6,12.3c-14.4,8.2 -25.8,19.9 -34.2,35.1c-8.4,15.2 -12.6,32.8 -12.6,52.8c0,20 4.2,37.6 12.6,52.8c8.4,15.2 19.8,26.9 34.2,35.1c14.4,8.2 30.6,12.3 48.6,12.3Z" style="fill-rule:nonzero;"/><path d="M505.433,422.117c-33.2,0 -59.1,-9.1 -77.7,-27.3c-18.6,-18.2 -27.9,-43.9 -27.9,-77.1l0,-291l75,0l0,285.6c0,32 15,48 45,48c10,0 19,-2 27,-6l3.6,60c-14,5.2 -29,7.8 -45,7.8Z" style="fill-rule:nonzero;"/><path d="M902.633,97.517l0,320.4l-71.4,0l0,-41.4c-12.4,15.2 -27.7,26.6 -45.9,34.2c-18.2,7.6 -38.3,11.4 -60.3,11.4c-31.2,0 -59.1,-6.8 -83.7,-20.4c-24.6,-13.6 -43.8,-32.8 -57.6,-57.6c-13.8,-24.8 -20.7,-53.6 -20.7,-86.4c0,-32.8 6.9,-61.5 20.7,-86.1c13.8,-24.6 33,-43.7 57.6,-57.3c24.6,-13.6 52.5,-20.4 83.7,-20.4c20.8,0 39.9,3.6 57.3,10.8c17.4,7.2 32.5,17.8 45.3,31.8l0,-39l75,0Zm-169.2,260.4c27.6,0 50.4,-9.2 68.4,-27.6c18,-18.4 27,-42.6 27,-72.6c0,-30 -9,-54.2 -27,-72.6c-18,-18.4 -40.8,-27.6 -68.4,-27.6c-27.6,0 -50.3,9.2 -68.1,27.6c-17.8,18.4 -26.7,42.6 -26.7,72.6c0,30 8.9,54.2 26.7,72.6c17.8,18.4 40.5,27.6 68.1,27.6Z" style="fill-rule:nonzero;"/><path d="M1166.03,400.517c-8.8,7.2 -19.5,12.6 -32.1,16.2c-12.6,3.6 -25.9,5.4 -39.9,5.4c-35.2,0 -62.4,-9.2 -81.6,-27.6c-19.2,-18.4 -28.8,-45.2 -28.8,-80.4l0,-266.566l75,-0l0,52.366l85.8,0l0,60l-85.8,0l0,152.4c0,15.6 3.9,27.5 11.7,35.7c7.8,8.2 18.7,12.3 32.7,12.3c16.8,0 30.8,-4.4 42,-13.2l21,53.4Z" style="fill-rule:nonzero;"/><path d="M1355.03,422.117c-32.4,0 -61.6,-7 -87.6,-21c-26,-14 -46.3,-33.5 -60.9,-58.5c-14.6,-25 -21.9,-53.3 -21.9,-84.9c0,-31.6 7.3,-59.8 21.9,-84.6c14.6,-24.8 34.9,-44.2 60.9,-58.2c26,-14 55.2,-21 87.6,-21c32.8,0 62.2,7 88.2,21c26,14 46.3,33.4 60.9,58.2c14.6,24.8 21.9,53 21.9,84.6c0,31.6 -7.3,59.9 -21.9,84.9c-14.6,25 -34.9,44.5 -60.9,58.5c-26,14 -55.4,21 -88.2,21Zm0,-64.2c27.6,0 50.4,-9.2 68.4,-27.6c18,-18.4 27,-42.6 27,-72.6c0,-30 -9,-54.2 -27,-72.6c-18,-18.4 -40.8,-27.6 -68.4,-27.6c-27.6,0 -50.3,9.2 -68.1,27.6c-17.8,18.4 -26.7,42.6 -26.7,72.6c0,30 8.9,54.2 26.7,72.6c17.8,18.4 40.5,27.6 68.1,27.6Z" style="fill-rule:nonzero;"/><path d="M1990.43,93.917c40.4,0 72.4,11.7 96,35.1c23.6,23.4 35.4,58.5 35.4,105.3l0,183.6l-75,0l0,-174c0,-28 -6.2,-49.1 -18.6,-63.3c-12.4,-14.2 -30.2,-21.3 -53.4,-21.3c-25.2,0 -45.4,8.3 -60.6,24.9c-15.2,16.6 -22.8,40.3 -22.8,71.1l0,162.6l-75,0l0,-174c0,-28 -6.2,-49.1 -18.6,-63.3c-12.4,-14.2 -30.2,-21.3 -53.4,-21.3c-25.6,0 -45.9,8.2 -60.9,24.6c-15,16.4 -22.5,40.2 -22.5,71.4l0,162.6l-75,0l0,-320.4l71.4,0l0,40.8c12,-14.4 27,-25.4 45,-33c18,-7.6 38,-11.4 60,-11.4c24,0 45.3,4.5 63.9,13.5c18.6,9 33.3,22.3 44.1,39.9c13.2,-16.8 30.2,-29.9 51,-39.3c20.8,-9.4 43.8,-14.1 69,-14.1Z" style="fill-rule:nonzero;"/><path d="M2349.83,422.117c-32.4,0 -61.6,-7 -87.6,-21c-26,-14 -46.3,-33.5 -60.9,-58.5c-14.6,-25 -21.9,-53.3 -21.9,-84.9c0,-31.6 7.3,-59.8 21.9,-84.6c14.6,-24.8 34.9,-44.2 60.9,-58.2c26,-14 55.2,-21 87.6,-21c32.8,0 62.2,7 88.2,21c26,14 46.3,33.4 60.9,58.2c14.6,24.8 21.9,53 21.9,84.6c0,31.6 -7.3,59.9 -21.9,84.9c-14.6,25 -34.9,44.5 -60.9,58.5c-26,14 -55.4,21 -88.2,21Zm0,-64.2c27.6,0 50.4,-9.2 68.4,-27.6c18,-18.4 27,-42.6 27,-72.6c0,-30 -9,-54.2 -27,-72.6c-18,-18.4 -40.8,-27.6 -68.4,-27.6c-27.6,0 -50.3,9.2 -68.1,27.6c-17.8,18.4 -26.7,42.6 -26.7,72.6c0,30 8.9,54.2 26.7,72.6c17.8,18.4 40.5,27.6 68.1,27.6Z" style="fill-rule:nonzero;"/></g></g></g></svg>