<?xml version="1.0" encoding="UTF-8" standalone="no"?><!DOCTYPE svg PUBLIC "-//W3C//DTD SVG 1.1//EN" "http://www.w3.org/Graphics/SVG/1.1/DTD/svg11.dtd"><svg width="100%" height="100%" viewBox="0 0 128 237" version="1.1" xmlns="http://www.w3.org/2000/svg" xmlns:xlink="http://www.w3.org/1999/xlink" xml:space="preserve" xmlns:serif="http://www.serif.com/" style="fill-rule:evenodd;clip-rule:evenodd;stroke-linejoin:round;stroke-miterlimit:2;"><g><circle cx="59.896" cy="18.844" r="18.844"/><path d="M4.038,127.196c51.035,-79.638 46.212,-81.881 65.28,-82.442c11.105,0.337 11.441,3.365 30.285,18.171c23.218,17.049 21.536,17.273 21.199,36.005c-0.112,22.545 1.458,20.863 -16.488,29.275l-0,-38.024l-15.815,-14.133l-0,53.503l-37.688,-0.336l-0.337,-42.399c-30.957,47.783 -28.938,45.091 -46.436,40.38Z" style="fill-rule:nonzero;"/><path d="M51.484,134.935l36.678,0c0,8.412 2.692,7.739 22.209,44.418c20.526,37.799 20.863,35.22 9.085,56.867l-50.811,-91.19c-48.119,93.097 -42.062,90.293 -68.645,88.499l26.583,-49.802c22.77,-41.165 24.004,-41.277 24.901,-48.792Z" style="fill-rule:nonzero;"/></g></svg>