<?xml version="1.0" encoding="UTF-8" standalone="no"?><!DOCTYPE svg PUBLIC "-//W3C//DTD SVG 1.1//EN" "http://www.w3.org/Graphics/SVG/1.1/DTD/svg11.dtd"><svg width="100%" height="100%" viewBox="0 0 307 237" version="1.1" xmlns="http://www.w3.org/2000/svg" xmlns:xlink="http://www.w3.org/1999/xlink" xml:space="preserve" xmlns:serif="http://www.serif.com/" style="fill-rule:evenodd;clip-rule:evenodd;stroke-linejoin:round;stroke-miterlimit:2;"><g id="g948"><path id="path950" d="M55.781,201.358c0,-11.554 -9.368,-20.915 -20.918,-20.915c-11.553,-0 -20.915,9.361 -20.915,20.915c0,11.553 9.362,20.918 20.915,20.918c11.55,-0 20.918,-9.365 20.918,-20.918Zm13.944,-0c0,19.252 -15.609,34.862 -34.862,34.862c-19.253,0 -34.863,-15.61 -34.863,-34.862c0,-19.253 15.61,-34.864 34.863,-34.864c19.253,0 34.862,15.611 34.862,34.864" style="fill-rule:nonzero;"/><path id="path952" d="M292.208,201.358c0,-11.554 -9.365,-20.915 -20.914,-20.915c-11.557,-0 -20.919,9.361 -20.919,20.915c0,11.553 9.362,20.918 20.919,20.918c11.549,-0 20.914,-9.365 20.914,-20.918Zm13.945,-0c-0,19.252 -15.61,34.862 -34.859,34.862c-19.257,0 -34.864,-15.61 -34.864,-34.862c0,-19.253 15.607,-34.864 34.864,-34.864c19.249,0 34.859,15.611 34.859,34.864" style="fill-rule:nonzero;"/><path id="path954" d="M67.879,12.874l-16.808,119.443l45.125,57.774l126.058,0l-3.516,4.826l52.556,-0.008c3.559,0 6.447,2.889 6.447,6.449c0,3.562 -2.888,6.451 -6.447,6.451l-61.566,-0.022l-4.506,6.437l-110.122,0l-10.207,-10.345l0,-7.362l-36.311,-46.481l-7.333,52.217c-0.446,3.186 -3.171,5.556 -6.386,5.556c-3.564,0 -6.448,-2.889 -6.448,-6.451c0,-0.302 0.018,-0.603 0.061,-0.9l26.405,-187.584l-27.726,0.026c-3.559,-0 -6.447,-2.889 -6.447,-6.452c-0,-3.56 2.888,-6.448 6.447,-6.448l72.934,-0c3.56,-0 6.448,2.888 6.448,6.448c-0,3.563 -2.888,6.452 -6.448,6.452l-32.21,-0.026" style="fill-rule:nonzero;"/></g></svg>