<?xml version="1.0" encoding="UTF-8" standalone="no"?><!DOCTYPE svg PUBLIC "-//W3C//DTD SVG 1.1//EN" "http://www.w3.org/Graphics/SVG/1.1/DTD/svg11.dtd"><svg width="100%" height="100%" viewBox="0 0 453 272" version="1.1" xmlns="http://www.w3.org/2000/svg" xmlns:xlink="http://www.w3.org/1999/xlink" xml:space="preserve" xmlns:serif="http://www.serif.com/" style="fill-rule:evenodd;clip-rule:evenodd;"><g><circle cx="103.71" cy="167.638" r="68.583" style="fill:none;stroke:#000;stroke-width:17.04px;"/><circle cx="348.649" cy="166.36" r="68.583" style="fill:none;stroke:#000;stroke-width:17.04px;"/><path d="M195.077,0c-56.471,0.55 -46.894,-5.834 -77.276,91.806c-24.751,78.015 -22.055,69.507 -22.184,74.98c-0.091,4.251 3.341,7.622 7.653,7.91c8.969,-0.907 5.196,0.97 36.29,-95.586c113.614,119.853 70.989,100.417 132.132,102.851c80.358,-0.77 86.889,4.183 87.843,-7.595c-0.11,-4 -1.981,-6.385 -57.131,-129.123l5.284,-14.531l18.163,-0.33l-0.66,-15.191l-67.699,-0c-5.981,8.183 2.421,8.146 32.693,14.861l-5.284,14.86l-135.067,0.331c9.1,-31.777 3.963,-29.795 44.912,-29.722l0.331,-15.521Zm-49.146,61.53l132.166,-0.234l-38.197,102.639l-93.969,-102.405Zm148.101,6.093l-37.494,98.421l82.018,0.235l-44.524,-98.656Z"/></g></svg>