<?xml version="1.0" encoding="UTF-8" standalone="no"?><!DOCTYPE svg PUBLIC "-//W3C//DTD SVG 1.1//EN" "http://www.w3.org/Graphics/SVG/1.1/DTD/svg11.dtd"><svg width="100%" height="100%" viewBox="0 0 708 272" version="1.1" xmlns="http://www.w3.org/2000/svg" xmlns:xlink="http://www.w3.org/1999/xlink" xml:space="preserve" xmlns:serif="http://www.serif.com/" style="fill-rule:evenodd;clip-rule:evenodd;"><g><g><g><circle cx="103.71" cy="167.638" r="68.583" style="fill:none;stroke:#000;stroke-width:17.04px;"/><circle cx="348.649" cy="166.36" r="68.583" style="fill:none;stroke:#000;stroke-width:17.04px;"/><path d="M195.077,0c-56.471,0.55 -46.894,-5.834 -77.276,91.806c-24.751,78.015 -22.055,69.507 -22.184,74.98c-0.091,4.251 3.341,7.622 7.653,7.91c8.969,-0.907 5.196,0.97 36.29,-95.586c113.614,119.853 70.989,100.417 132.132,102.851c80.358,-0.77 86.889,4.183 87.843,-7.595c-0.11,-4 -1.981,-6.385 -57.131,-129.123l5.284,-14.531l18.163,-0.33l-0.66,-15.191l-67.699,-0c-5.981,8.183 2.421,8.146 32.693,14.861l-5.284,14.86l-135.067,0.331c9.1,-31.777 3.963,-29.795 44.912,-29.722l0.331,-15.521Zm-49.146,61.53l132.166,-0.234l-38.197,102.639l-93.969,-102.405Zm148.101,6.093l-37.494,98.421l82.018,0.235l-44.524,-98.656Z"/><circle cx="598.189" cy="166.449" r="68.583" style="fill:none;stroke:#000;stroke-width:17.04px;"/><path id="path28093" d="M524.779,154.034l-75.658,-0l0,12.331l-98.171,0.084l-0,12.415l169.829,0c0.904,-8.348 0.65,-16.89 4,-24.83Z"/><path id="path26317" d="M449.638,178.864l-0.239,-30.873c-1.437,-104.487 222.168,-136.231 222.168,-136.231c6.037,1.561 34.707,-7.458 35.524,21.621l0,120.653l-257.453,24.83Z"/><path id="path27206" d="M707.175,154.034l-11.916,24.83l-177.635,0c-1.748,-8.321 -3.488,-22.95 -8.017,-30.873l197.568,6.043Z"/></g></g></g></svg>