<?xml version="1.0" encoding="UTF-8" standalone="no"?><!DOCTYPE svg PUBLIC "-//W3C//DTD SVG 1.1//EN" "http://www.w3.org/Graphics/SVG/1.1/DTD/svg11.dtd"><svg width="100%" height="100%" viewBox="0 0 550 237" version="1.1" xmlns="http://www.w3.org/2000/svg" xmlns:xlink="http://www.w3.org/1999/xlink" xml:space="preserve" xmlns:serif="http://www.serif.com/" style="fill-rule:evenodd;clip-rule:evenodd;stroke-linejoin:round;stroke-miterlimit:2;"><g id="g4804"><path id="path4806" d="M303.483,0c-12.943,0 -24.378,8.431 -28.206,20.796l0.001,-0.002c-14.206,45.891 -29.619,95.625 -43.856,141.611l-104.467,0l-57.638,-63.117l-4.04,13.045l-0.057,0.182l-7.394,23.89c-2.524,-0.385 -5.075,-0.577 -7.629,-0.577c-27.723,-0 -50.197,22.474 -50.197,50.195c0,27.723 22.474,50.197 50.197,50.197c27.723,0 50.196,-22.474 50.196,-50.197c-0,-19.289 -11.053,-36.872 -28.436,-45.234l-14.709,47.417l10.275,-33.089c11.184,6.268 18.107,18.087 18.107,30.906c0,19.571 -15.864,35.433 -35.433,35.433c-19.568,0 -35.433,-15.862 -35.433,-35.433c0,-19.569 15.865,-35.433 35.433,-35.433c1.066,-0 2.132,0.049 3.195,0.143l-10.246,33.104c-0.22,0.708 -0.332,1.446 -0.332,2.186c0,4.077 3.306,7.383 7.383,7.383c3.236,0 6.094,-2.107 7.051,-5.2l18.557,-59.952l44.668,48.912l261.305,-0l21.289,0.003c7.017,34.369 37.25,59.051 72.326,59.051c40.769,0 73.819,-33.05 73.819,-73.818c0,-40.769 -33.05,-73.819 -73.819,-73.819c-7.77,-0 -15.491,1.227 -22.879,3.635l-21.411,-47.927l5.534,-14.763l16.608,0l-0,-14.764l-62.772,0.059c-2.022,-0 -3.663,1.639 -3.663,3.662c0,1.693 1.163,3.166 2.81,3.559l31.25,7.484c-10.703,28.537 -21.708,56.869 -32.3,85.502l-59.224,0l-50.453,-55.975l-0.073,-0l4.644,-14.764l5.916,-19.131c1.914,-6.182 7.632,-10.396 14.103,-10.396l24.273,0l-0,-14.764l-24.273,-0Zm120.239,63.97l15.283,34.206c-23.134,13.105 -37.431,37.639 -37.431,64.226l-14.764,-0l36.912,-98.432Zm-149.873,11.364l78.339,87.068l-105.337,-0l26.958,-86.934l0.04,-0.134Zm201.544,28.013c32.616,-0 59.055,26.439 59.055,59.055c-0,32.615 -26.439,59.054 -59.055,59.054c-26.927,0 -50.446,-18.216 -57.179,-44.289l-0,-0.001l60.842,0.058c4.109,0 7.439,-3.331 7.439,-7.441c0,-1.04 -0.218,-2.07 -0.639,-3.021l-27.291,-60.967c5.463,-1.624 11.13,-2.448 16.828,-2.448Zm-30.327,8.382l22.634,50.673l-51.361,-0c-0,-20.767 10.908,-40.009 28.727,-50.673Zm-102.413,18.065l40.455,0l-11.77,31.821l-28.685,-31.821Z" style="fill-rule:nonzero;"/><path id="path4808" d="M259.053,53.15l-31.999,103.347l-97.382,-0l-67.196,-73.602c21.834,-32.6 104.753,-32.037 196.577,-29.745" style="fill-rule:nonzero;"/></g></svg>