<?xml version="1.0" encoding="UTF-8" standalone="no"?><!DOCTYPE svg PUBLIC "-//W3C//DTD SVG 1.1//EN" "http://www.w3.org/Graphics/SVG/1.1/DTD/svg11.dtd"><svg width="100%" height="100%" viewBox="0 0 303 245" version="1.1" xmlns="http://www.w3.org/2000/svg" xmlns:xlink="http://www.w3.org/1999/xlink" xml:space="preserve" xmlns:serif="http://www.serif.com/" style="fill-rule:evenodd;clip-rule:evenodd;stroke-linecap:round;stroke-linejoin:round;"><g><path id="path4749" d="M200.532,213.058c-31.643,-1.594 -78.203,3.978 -93.824,-15.821c-7.158,-37.675 -27.613,-56.639 -62.734,-57.031c-21.563,-41.644 17.58,-48.17 44.337,-58.87c1.699,19.357 0.658,39.478 31.274,50.776c1.229,-5.99 3.741,-10.881 11.774,-11.038l45.257,0.184l32.01,-25.02c5.173,8.227 15.438,18.769 15.454,24.652l48.567,0.184c3.537,3.012 6.537,11.006 -0.552,18.949c-29.094,-0.884 -81.974,2.295 -71.563,73.035Z"/><path id="path5636" d="M121.587,53.817l0.13,-17.153l19.209,-2.607l-0,-13.614l-19.599,3.257c1.441,-12.264 9.326,-21.132 26.697,-23.7c10.907,0.769 22.345,1.36 28.852,21.762c1.907,8.093 0.718,16.28 -4.308,23.333c-16.269,-8.919 -28.445,-2.831 -39.553,7.174l-11.428,1.548Z"/><path id="path6523" d="M88.127,90.903l57.214,-43.233c7.69,-4.102 16.172,-4.882 26.308,1.288c8.664,7.871 23.301,29.677 34.954,44.52l-32.563,24.376l-31.275,-43.508l-49.487,37.897c-3.809,-6.648 -4.701,-14.452 -5.151,-21.34Z"/><path id="path7410" d="M90.699,195.099l-0,0.013c-0,22.521 -18.532,41.053 -41.053,41.053c-22.521,-0 -41.053,-18.532 -41.053,-41.053l-0,-0.013c-0,-22.521 18.532,-41.053 41.053,-41.053c22.521,-0 41.053,18.532 41.053,41.053Z" style="fill:none;fill-rule:nonzero;stroke:#000;stroke-width:17.19px;"/><path id="path8297" d="M294.262,195.155l0,0.012c0,22.521 -18.532,41.053 -41.053,41.053c-22.521,0 -41.053,-18.532 -41.053,-41.053l-0,-0.012c-0,-22.521 18.532,-41.053 41.053,-41.053c22.521,-0 41.053,18.532 41.053,41.053Z" style="fill:none;fill-rule:nonzero;stroke:#000;stroke-width:17.19px;"/></g></svg>