<?xml version="1.0" encoding="UTF-8" standalone="no"?><!DOCTYPE svg PUBLIC "-//W3C//DTD SVG 1.1//EN" "http://www.w3.org/Graphics/SVG/1.1/DTD/svg11.dtd"><svg width="100%" height="100%" viewBox="0 0 615 237" version="1.1" xmlns="http://www.w3.org/2000/svg" xmlns:xlink="http://www.w3.org/1999/xlink" xml:space="preserve" xmlns:serif="http://www.serif.com/" style="fill-rule:evenodd;clip-rule:evenodd;stroke-linejoin:round;stroke-miterlimit:2;"><path d="M147.638,188.976c-0,-25.917 -21.327,-47.244 -47.244,-47.244c-8.293,0 -16.441,2.184 -23.622,6.33c-14.6,8.429 -23.622,24.057 -23.622,40.914c-0,16.858 9.022,32.486 23.622,40.915c7.181,4.146 15.329,6.329 23.622,6.329c25.917,0 47.244,-21.326 47.244,-47.244Zm419.291,0c0,-25.917 -21.327,-47.244 -47.244,-47.244c-8.292,0 -16.441,2.184 -23.622,6.33c-14.599,8.429 -23.622,24.057 -23.622,40.914c-0,16.858 9.023,32.486 23.622,40.915c7.181,4.146 15.33,6.329 23.622,6.329c25.917,0 47.244,-21.326 47.244,-47.244m-525.59,0l-29.528,0c-6.479,0 -11.811,-5.331 -11.811,-11.811l0,-54.955c0,-5.749 4.198,-10.705 9.869,-11.65l167.296,-27.883l79.218,-79.218c2.214,-2.214 5.22,-3.459 8.352,-3.459l227.185,0c2.681,0 5.284,0.913 7.378,2.588l110.442,88.354c2.8,2.24 4.433,5.637 4.433,9.223l0,77c0,6.48 -5.331,11.811 -11.811,11.811l-23.622,0c0,-32.396 -26.658,-59.055 -59.055,-59.055c-10.366,0 -20.551,2.729 -29.528,7.912c-18.249,10.536 -29.527,30.071 -29.527,51.143l-301.181,0c-0,-32.396 -26.659,-59.055 -59.055,-59.055c-10.366,0 -20.551,2.729 -29.528,7.912c-18.249,10.536 -29.527,30.071 -29.527,51.143Zm324.803,-94.488l-162.908,0c-3.24,0 -5.906,-2.666 -5.906,-5.905c0,-1.037 0.273,-2.055 0.791,-2.953c0.258,-0.447 0.574,-0.858 0.939,-1.223l57.325,-57.326c2.214,-2.214 5.22,-3.459 8.352,-3.459l101.407,0l-0,70.866Zm17.716,0l0,-70.866l83.69,0c3.132,0 6.138,1.245 8.352,3.459l47.244,47.245c2.214,2.214 3.459,5.22 3.459,8.351c0,5.329 -3.606,10.029 -8.754,11.409c-0.997,0.267 -2.024,0.402 -3.057,0.402l-130.934,0Z"/></svg>