<?xml version="1.0" encoding="UTF-8" standalone="no"?><!DOCTYPE svg PUBLIC "-//W3C//DTD SVG 1.1//EN" "http://www.w3.org/Graphics/SVG/1.1/DTD/svg11.dtd"><svg width="100%" height="100%" viewBox="0 0 930 237" version="1.1" xmlns="http://www.w3.org/2000/svg" xmlns:xlink="http://www.w3.org/1999/xlink" xml:space="preserve" xmlns:serif="http://www.serif.com/" style="fill-rule:evenodd;clip-rule:evenodd;stroke-linejoin:round;stroke-miterlimit:2;"><g><g><path id="path25345" d="M148.662,188.269c0,26.476 -21.462,47.939 -47.938,47.939c-26.476,-0 -47.939,-21.463 -47.939,-47.939c-0,-26.476 21.463,-47.939 47.939,-47.939c26.476,-0 47.938,21.463 47.938,47.939Z" style="fill-rule:nonzero;"/><path id="path24454" d="M253.66,5.194c2.553,-2.956 5.462,-5.495 10.831,-5.165l231.913,0l115.26,91.516c1.271,2.688 1.915,4.748 2.238,6.487l0.438,81.097c-2.143,4.648 -4.663,8.616 -9.158,9.03l-26.751,-0c-0,-79.287 -117.216,-79.449 -117.216,-0l-301.155,-0c-0,-78.98 -118.108,-79.283 -118.108,-0l-32.633,-0c-2.782,-1.302 -5.286,-0.092 -8.962,-9.438l-0.357,-58.318c1.898,-5.306 4.265,-7.328 6.626,-9.387l169.517,-28.161l77.517,-77.661Zm270.907,71.426l-49.505,-49.856c-1.302,-1.107 -2.326,-2.63 -4.59,-2.295l-86.416,-0l-0,69.818l147.277,-0c6.969,-1.39 -2.201,-10.792 -6.766,-17.667Zm-324.674,7.136c-2.545,4.451 -1.717,8.108 4.4,10.521l160.676,-0l0,-69.818l-102.718,-0c-2.264,-0.336 -3.288,1.188 -4.591,2.295l-57.767,57.002Z"/><path id="path25343" d="M567.268,188.249c0,26.475 -21.463,47.938 -47.938,47.938c-26.476,0 -47.939,-21.463 -47.939,-47.938c-0,-26.476 21.463,-47.939 47.939,-47.939c26.475,-0 47.938,21.463 47.938,47.939Z" style="fill-rule:nonzero;"/><path id="path28093" d="M746.952,163.895l-75.657,0l-0,12.332l-46.828,0l-0,12.499l118.486,-0c0.903,-8.349 0.649,-16.89 3.999,-24.831Z"/><path id="path26315" d="M848.921,188.282c-0,26.476 -21.463,47.938 -47.939,47.938c-26.476,0 -47.939,-21.462 -47.939,-47.938c-0,-26.476 21.463,-47.939 47.939,-47.939c26.476,-0 47.939,21.463 47.939,47.939Z" style="fill-rule:nonzero;"/><path id="path26317" d="M671.461,153.23l0,-108.654c2.358,-16.936 11.039,-18.565 18.998,-20.998l221.641,0c6.038,1.562 13.429,2.85 17.165,19.665l-0,109.987l-81.991,0c-16.831,-34.554 -74.991,-34.71 -92.822,0l-82.991,0Z"/><path id="path27206" d="M929.348,163.895l-11.915,24.831l-58.66,-0c-1.748,-8.321 -1.636,-16.907 -6.166,-24.831l76.741,0Z"/></g></g></svg>