<?xml version="1.0" encoding="UTF-8" standalone="no"?><!DOCTYPE svg PUBLIC "-//W3C//DTD SVG 1.1//EN" "http://www.w3.org/Graphics/SVG/1.1/DTD/svg11.dtd"><svg width="100%" height="100%" viewBox="0 0 575 237" version="1.1" xmlns="http://www.w3.org/2000/svg" xmlns:xlink="http://www.w3.org/1999/xlink" xml:space="preserve" xmlns:serif="http://www.serif.com/" style="fill-rule:evenodd;clip-rule:evenodd;stroke-linejoin:round;stroke-miterlimit:2;"><g><g><path d="M542.219,-0l-346.65,-0c-37.608,-0 -109.361,92.576 -109.361,92.576c0,0 -41.111,6.881 -67.973,22.977c-26.852,16.153 -16.115,80.605 -16.115,80.605l41.647,-0c-0,-26.709 21.656,-48.346 48.365,-48.346c26.718,-0 48.374,21.675 48.374,48.346l296.256,-0c-0,-26.709 21.646,-48.346 48.355,-48.346c26.728,-0 48.384,21.675 48.384,48.346l40.977,-0l-0,-118.214c-0,0 -10.747,-77.944 -32.259,-77.944Zm-294.878,75.571l-118.921,0c-0,0 42.326,-53.724 62.48,-53.724l56.441,0l-0,53.724Zm117.582,0l-93.4,0l0,-53.714l93.4,-0l-0,53.714Zm102.758,-0.622l-91.227,0l-0,-53.714l91.227,-0l-0,53.714Zm11.426,0.622l0,-53.714l56.422,-0l12.096,53.743l-68.518,-0.029Z" style="fill-rule:nonzero;"/><circle cx="91.862" cy="197.341" r="38.88"/><circle cx="485.413" cy="197.341" r="38.88"/></g></g></svg>