<?xml version="1.0" encoding="UTF-8" standalone="no"?><!DOCTYPE svg PUBLIC "-//W3C//DTD SVG 1.1//EN" "http://www.w3.org/Graphics/SVG/1.1/DTD/svg11.dtd"><svg width="100%" height="100%" viewBox="0 0 835 237" version="1.1" xmlns="http://www.w3.org/2000/svg" xmlns:xlink="http://www.w3.org/1999/xlink" xml:space="preserve" xmlns:serif="http://www.serif.com/" style="fill-rule:evenodd;clip-rule:evenodd;stroke-linejoin:round;stroke-miterlimit:2;"><g><g><g><path id="path28093" d="M687.09,177.626l-61.295,0l0,9.991l-37.938,-0l0,10.126l95.993,-0c0.731,-6.764 0.526,-13.684 3.24,-20.117Z"/><path id="path26315" d="M769.7,197.383c-0,21.449 -17.389,38.837 -38.838,38.837c-21.45,0 -38.838,-17.388 -38.838,-38.837c0,-21.45 17.388,-38.838 38.838,-38.838c21.449,-0 38.838,17.388 38.838,38.838Z" style="fill-rule:nonzero;"/><path id="path26317" d="M625.93,168.985l0,-88.026c1.91,-13.721 8.943,-15.041 15.391,-17.012l179.564,0c4.891,1.265 10.879,2.309 13.906,15.932l0,89.106l-66.425,0c-13.636,-27.994 -60.755,-28.12 -75.201,0l-67.235,0Z"/><path id="path27206" d="M834.859,177.626l-9.654,20.117l-47.523,-0c-1.416,-6.742 -1.326,-13.698 -4.996,-20.117l62.173,0Z"/><path d="M542.219,-0l-346.65,-0c-37.608,-0 -109.361,92.576 -109.361,92.576c0,0 -41.111,6.881 -67.973,22.977c-26.852,16.153 -16.115,80.605 -16.115,80.605l41.647,-0c-0,-26.709 21.656,-48.346 48.365,-48.346c26.718,-0 48.374,21.675 48.374,48.346l296.256,-0c-0,-26.709 21.646,-48.346 48.355,-48.346c26.728,-0 48.384,21.675 48.384,48.346l40.977,-0l-0,-118.214c-0,0 -10.747,-77.944 -32.259,-77.944Zm-294.878,75.571l-118.921,0c-0,0 42.326,-53.724 62.48,-53.724l56.441,0l-0,53.724Z" style="fill-rule:nonzero;"/><circle cx="91.862" cy="197.341" r="38.88"/><circle cx="485.413" cy="197.341" r="38.88"/></g></g></g></svg>