<?xml version="1.0" encoding="UTF-8" standalone="no"?><!DOCTYPE svg PUBLIC "-//W3C//DTD SVG 1.1//EN" "http://www.w3.org/Graphics/SVG/1.1/DTD/svg11.dtd"><svg width="100%" height="100%" viewBox="0 0 463 237" version="1.1" xmlns="http://www.w3.org/2000/svg" xmlns:xlink="http://www.w3.org/1999/xlink" xml:space="preserve" xmlns:serif="http://www.serif.com/" style="fill-rule:evenodd;clip-rule:evenodd;stroke-linejoin:round;stroke-miterlimit:2;"><g><path d="M129.823,36.967l-0,122.999l194.174,0.158c-11.395,9.31 -18.509,22.141 -18.416,38.983l-192.754,-0.115c-1.847,-65.338 -94.546,-65.116 -96.56,-0.378c-13.923,-0.103 -15.854,-3.265 -15.989,-16.091l0,-49.047c-0.174,-21.919 -2.912,-7.45 13.314,-49.015c16.695,-44.308 12.092,-40.213 27.193,-41.356l89.038,-6.138Zm-38.567,72.523l0.768,-52.258l-49.567,3.074c-9.037,0.605 -9.112,0.662 -12.296,11.143l-12.68,33.814c-4.26,10.372 -3.582,13.427 8.069,11.911l65.706,-7.684Zm370.926,50.727l0.094,27.634l-32.008,11.33l-28.105,-0.018c0.115,-16.023 -6.544,-29.5 -18.351,-38.967l78.37,0.021Z"/><rect x="149.648" y="-0" width="312.764" height="149.471"/><circle cx="64.533" cy="198.072" r="38.148"/><circle cx="353.863" cy="198.072" r="38.148"/></g></svg>