<?xml version="1.0" encoding="UTF-8" standalone="no"?><!DOCTYPE svg PUBLIC "-//W3C//DTD SVG 1.1//EN" "http://www.w3.org/Graphics/SVG/1.1/DTD/svg11.dtd"><svg width="100%" height="100%" viewBox="0 0 845 237" version="1.1" xmlns="http://www.w3.org/2000/svg" xmlns:xlink="http://www.w3.org/1999/xlink" xml:space="preserve" xmlns:serif="http://www.serif.com/" style="fill-rule:evenodd;clip-rule:evenodd;stroke-linejoin:round;stroke-miterlimit:2;"><g><g><path id="path11867" d="M844.849,160.56l-0,28.158l-40.125,0c-2.691,-10.193 -7.373,-19.869 -17.407,-28.158l57.532,0Z"/><rect id="path10081" x="151.125" y="0.115" width="314.668" height="150.127"/><rect id="path10968" x="508.534" y="-0" width="336.369" height="150.127"/><path id="path10970" d="M795.559,198.493c-0,20.697 -17.031,37.727 -37.728,37.727c-20.697,0 -37.728,-17.03 -37.728,-37.727c0,-20.697 17.031,-37.728 37.728,-37.728c20.697,0 37.728,17.031 37.728,37.728Z" style="fill-rule:nonzero;"/><path id="path10972" d="M611.459,198.454c0,20.697 -17.031,37.728 -37.728,37.728c-20.696,-0 -37.727,-17.031 -37.727,-37.728c-0,-20.697 17.031,-37.728 37.727,-37.728c20.697,0 37.728,17.031 37.728,37.728Z" style="fill-rule:nonzero;"/><path id="path10974" d="M395.305,198.342c0,20.697 -17.031,37.728 -37.728,37.728c-20.696,0 -37.727,-17.031 -37.727,-37.728c-0,-20.696 17.031,-37.727 37.727,-37.727c20.697,-0 37.728,17.031 37.728,37.727Z" style="fill-rule:nonzero;"/><path id="path10976" d="M103.128,198.454c0,20.697 -17.03,37.728 -37.727,37.728c-20.697,-0 -37.728,-17.031 -37.728,-37.728c0,-20.697 17.031,-37.728 37.728,-37.728c20.697,0 37.727,17.031 37.727,37.728Z" style="fill-rule:nonzero;"/><path id="path10980" d="M486.671,160.383l-0,28.158l40.125,0c2.69,-10.193 7.373,-19.869 17.407,-28.158l-57.532,0Z"/><path id="path11871" d="M604.047,160.56c10.107,8.614 13.163,17.997 16.503,28.158l90.247,0c2.69,-10.193 7.373,-19.869 17.407,-28.158l-124.157,0Z"/><path id="path11875" d="M465.794,160.253l0.145,28.737l-31.228,9.648l-29.191,0.064c1.328,-11.532 -7.291,-30.526 -18.857,-38.304l79.131,-0.145Z"/><path id="path11879" d="M130.121,37.817l0.216,122.61l198.213,0.023c-11.566,7.778 -20.185,26.773 -18.856,38.305l-195.309,-0c0,-62.574 -97.265,-62.737 -97.265,-0l-7.748,-0c-4.589,-1.166 -8.561,-3.124 -9.365,-9.156l-0.007,-65.869l0.99,-7.082l25.72,-67.474c1.509,-3.399 4.841,-5.18 8.796,-6.405l94.615,-4.952Zm-38.096,72.76l0,-53.915l-54.529,3.69c-1.987,0.333 -3.412,1.648 -4.305,3.895l-17.425,46.33c-0.294,1.64 -0.991,3.28 -0,4.92c0.634,1.5 1.828,2.254 3.28,2.665l72.979,-7.585Z"/></g></g></svg>