<?xml version="1.0" encoding="UTF-8" standalone="no"?><!DOCTYPE svg PUBLIC "-//W3C//DTD SVG 1.1//EN" "http://www.w3.org/Graphics/SVG/1.1/DTD/svg11.dtd"><svg width="100%" height="100%" viewBox="0 0 579 237" version="1.1" xmlns="http://www.w3.org/2000/svg" xmlns:xlink="http://www.w3.org/1999/xlink" xml:space="preserve" xmlns:serif="http://www.serif.com/" style="fill-rule:evenodd;clip-rule:evenodd;stroke-linejoin:round;stroke-miterlimit:2;"><path id="path5427" d="M154.258,0l0,134.976l424.21,-0l-0,-134.976l-424.21,0Zm-118.644,33.744c-4.03,-0 -7.632,2.497 -9.038,6.257l-24.116,64.332c-1.631,4.324 -2.46,8.912 -2.46,13.538l-0,74.952c-0,5.341 4.324,9.647 9.648,9.647l19.282,0c-0,-18.386 11.587,-34.767 28.917,-40.906c22.584,-7.978 47.37,3.854 55.367,26.438l57.992,-0c6.131,-17.33 22.515,-28.911 40.899,-28.911c23.958,0 43.378,19.421 43.378,43.379l14.469,0c-0,-31.955 -25.892,-57.847 -57.847,-57.847l-96.411,0l-0,-110.879l-80.08,-0Zm-4.28,19.282l50.603,0l0.006,48.219l-68.706,8.084c-1.054,0.125 -2.026,-0.635 -2.146,-1.708c-0.044,-0.294 -0,-0.596 0.101,-0.891l20.142,-53.704Zm412.158,91.597c-31.936,0 -57.847,25.892 -57.847,57.847l14.468,0c0,-12.341 5.253,-24.096 14.443,-32.344c17.876,-15.956 45.3,-14.449 61.28,3.427l12.46,0c8.209,-9.209 19.984,-14.462 32.325,-14.462c23.958,0 43.379,19.421 43.379,43.379l14.468,0c-0,-31.955 -25.892,-57.847 -57.847,-57.847l-77.129,0Zm-371.177,24.097c-18.636,-0 -33.75,15.114 -33.75,33.75c-0,18.628 15.114,33.75 33.75,33.75c18.63,0 33.744,-15.122 33.744,-33.75c-0,-18.636 -15.114,-33.75 -33.744,-33.75Zm139.79,-0c-18.63,-0 -33.751,15.114 -33.751,33.75c0,18.628 15.121,33.75 33.751,33.75c18.647,0 33.75,-15.122 33.75,-33.75c0,-18.636 -15.103,-33.75 -33.75,-33.75Zm231.387,-0c-18.63,-0 -33.731,15.114 -33.731,33.75c-0,18.628 15.101,33.75 33.731,33.75c18.63,0 33.75,-15.122 33.75,-33.75c0,-18.636 -15.12,-33.75 -33.75,-33.75Zm77.129,-0c-18.63,-0 -33.751,15.114 -33.751,33.75c0,18.628 15.121,33.75 33.751,33.75c18.647,0 33.75,-15.122 33.75,-33.75c0,-18.636 -15.103,-33.75 -33.75,-33.75Z" style="fill-rule:nonzero;"/></svg>