<?xml version="1.0" encoding="UTF-8" standalone="no"?><!DOCTYPE svg PUBLIC "-//W3C//DTD SVG 1.1//EN" "http://www.w3.org/Graphics/SVG/1.1/DTD/svg11.dtd"><svg width="100%" height="100%" viewBox="0 0 600 237" version="1.1" xmlns="http://www.w3.org/2000/svg" xmlns:xlink="http://www.w3.org/1999/xlink" xml:space="preserve" xmlns:serif="http://www.serif.com/" style="fill-rule:evenodd;clip-rule:evenodd;stroke-linejoin:round;stroke-miterlimit:2;"><g id="g4821"><path id="path4833" d="M28.808,-0c-3.186,-0 -5.766,2.582 -5.766,5.747l0,11.535c0,2.725 1.925,5.085 4.596,5.631c0.273,0.058 0.528,0.136 0.787,0.221c2.985,1.079 4.539,4.376 3.479,7.378l-29.888,83.692c-1.34,3.718 -2.016,7.651 -2.016,11.624l0,58.549c0,6.344 5.161,11.507 11.515,11.507l69.139,0c-0,-28.64 23.23,-51.845 51.87,-51.845c28.62,-0 51.851,23.205 51.851,51.845l213.178,0c-0,-28.64 23.205,-51.845 51.852,-51.845c28.64,-0 51.844,23.205 51.844,51.845l74.893,0c12.738,0 23.063,-10.317 23.063,-23.042l-0,-64.289c-0,-3.224 -0.463,-6.43 -1.34,-9.506l-23.517,-82.338c-2.835,-9.895 -11.878,-16.709 -22.164,-16.709l-523.376,-0Zm23.369,23.042l46.343,0c4.778,0 8.635,3.862 8.635,8.641l-0,63.38c-0,4.778 -3.857,8.64 -8.635,8.64l-68.983,-0c-4.772,-0 -8.635,-3.862 -8.635,-8.64c0,-0.989 0.163,-1.978 0.508,-2.913l22.626,-63.38c1.222,-3.439 4.479,-5.728 8.141,-5.728Zm78.605,0l42.463,0c3.841,0 7.248,2.562 8.309,6.262l18.1,63.379c1.32,4.59 -1.333,9.369 -5.928,10.689c-0.788,0.221 -1.575,0.331 -2.38,0.331l-60.564,-0c-4.772,-0 -8.634,-3.862 -8.634,-8.64l0,-63.38c0,-4.779 3.862,-8.641 8.634,-8.641Zm75.407,0l58.072,0c3.863,0 7.264,2.562 8.329,6.262l18.094,63.379c1.32,4.59 -1.331,9.369 -5.928,10.689c-0.768,0.221 -1.567,0.331 -2.374,0.331l-58.072,-0c-3.863,-0 -7.271,-2.568 -8.311,-6.262l-18.119,-63.378c-1.301,-4.597 1.352,-9.376 5.949,-10.689c0.767,-0.222 1.553,-0.332 2.36,-0.332Zm91.036,0l58.088,0c3.841,0 7.228,2.562 8.289,6.262l18.12,63.379c1.3,4.59 -1.353,9.369 -5.93,10.689c-0.767,0.221 -1.573,0.331 -2.379,0.331l-58.087,-0c-3.848,-0 -7.23,-2.568 -8.295,-6.262l-18.114,-63.378c-1.3,-4.597 1.351,-9.376 5.942,-10.689c0.774,-0.222 1.561,-0.332 2.366,-0.332Zm91.032,0l58.072,0c3.862,0 7.262,2.562 8.309,6.262l18.121,63.379c1.3,4.59 -1.358,9.369 -5.929,10.689c-0.774,0.221 -1.593,0.331 -2.38,0.331l-58.074,-0c-3.861,-0 -7.269,-2.568 -8.329,-6.262l-18.101,-63.378c-1.319,-4.597 1.34,-9.376 5.951,-10.689c0.765,-0.222 1.553,-0.332 2.36,-0.332Zm91.03,0l58.074,0c3.861,0 7.262,2.562 8.327,6.262l18.101,63.379c1.315,4.59 -1.339,9.369 -5.949,10.689c-0.767,0.221 -1.553,0.331 -2.36,0.331l-58.072,-0c-3.882,-0 -7.264,-2.568 -8.329,-6.262l-18.101,-63.378c-1.3,-4.597 1.358,-9.376 5.949,-10.689c0.767,-0.222 1.554,-0.332 2.36,-0.332Zm-346.763,132.505c-22.295,-0 -40.336,18.069 -40.336,40.337c0,22.276 18.041,40.336 40.336,40.336c22.275,0 40.318,-18.06 40.318,-40.336c-0,-22.268 -18.043,-40.337 -40.318,-40.337Zm316.881,-0c-22.275,-0 -40.338,18.069 -40.338,40.337c0,22.276 18.063,40.336 40.338,40.336c22.269,0 40.316,-18.06 40.316,-40.336c0,-22.268 -18.047,-40.337 -40.316,-40.337Z" style="fill-rule:nonzero;"/></g></svg>