<?xml version="1.0" encoding="UTF-8" standalone="no"?><!DOCTYPE svg PUBLIC "-//W3C//DTD SVG 1.1//EN" "http://www.w3.org/Graphics/SVG/1.1/DTD/svg11.dtd"><svg width="100%" height="100%" viewBox="0 0 498 237" version="1.1" xmlns="http://www.w3.org/2000/svg" xmlns:xlink="http://www.w3.org/1999/xlink" xml:space="preserve" xmlns:serif="http://www.serif.com/" style="fill-rule:evenodd;clip-rule:evenodd;stroke-linejoin:round;stroke-miterlimit:2;"><g><path d="M150.965,0l-61.288,40.86l53.276,35.518l-36.398,-0l-4.437,4.446l-79.921,-0l0,13.316l8.883,0l-30.152,60.279c-0.619,1.245 -0.928,2.605 -0.928,3.98l-0,28.982c-0,9.812 7.954,17.758 17.766,17.758l461.771,0c9.813,0 17.766,-7.946 17.766,-17.758l0,-28.982c0,-1.375 -0.326,-2.735 -0.951,-3.98l-30.146,-60.279l8.883,0l0,-13.316l-275.282,-0l-4.448,-4.446l-36.402,-0l53.293,-35.518l-61.285,-40.86Zm-0,5.334l53.279,35.526l-53.279,35.518l-53.293,-35.518l53.293,-35.526Zm-111.946,88.806l18.694,0l-0,62.161l-24.623,-0c-8.589,-0 -15.544,-6.947 -15.544,-15.536c-0,-2.421 0.563,-4.79 1.638,-6.958l19.835,-39.667Zm36.456,0l17.766,0c4.903,0 8.877,3.973 8.877,8.881l0,84.36c0,4.903 -3.974,8.877 -8.877,8.877l-17.766,0c-4.903,0 -8.883,-3.974 -8.883,-8.877l-0,-84.36c-0,-4.908 3.98,-8.881 8.883,-8.881Zm44.409,0l62.161,0c4.904,0 8.879,3.973 8.879,8.881l-0,44.395c-0,4.909 -3.975,8.885 -8.879,8.885l-62.161,-0c-4.908,-0 -8.881,-3.976 -8.881,-8.885l0,-44.395c0,-4.908 3.973,-8.881 8.881,-8.881Zm88.792,0l62.171,0c4.908,0 8.883,3.973 8.883,8.881l-0,44.395c-0,4.909 -3.975,8.885 -8.883,8.885l-62.171,-0c-4.894,-0 -8.869,-3.976 -8.869,-8.885l0,-44.395c0,-4.908 3.975,-8.881 8.869,-8.881Zm88.803,0l62.161,0c4.903,0 8.894,3.973 8.894,8.881l-0,44.395c-0,4.909 -3.991,8.885 -8.894,8.885l-62.161,-0c-4.908,-0 -8.883,-3.976 -8.883,-8.885l0,-44.395c0,-4.908 3.975,-8.881 8.883,-8.881Zm88.804,0l35.528,0c4.903,0 8.884,3.973 8.884,8.881l-0,84.36c-0,4.903 -3.981,8.877 -8.884,8.877l-35.528,0c-4.908,0 -8.881,-3.974 -8.881,-8.877l0,-84.36c0,-4.908 3.973,-8.881 8.881,-8.881Zm53.28,0l18.705,0l19.835,39.667c3.842,7.682 0.725,17.022 -6.945,20.85c-2.159,1.081 -4.537,1.644 -6.947,1.644l-24.648,-0l-0,-62.161Z" style="fill-rule:nonzero;"/><path d="M182.046,214.024c-0,12.264 -9.949,22.196 -22.197,22.196c-12.269,0 -22.203,-9.932 -22.203,-22.196l44.4,0Zm-53.277,0c-0,4.609 1.017,9.161 2.981,13.314l-37.065,-0c1.969,-4.153 2.987,-8.705 2.987,-13.314l31.097,0Zm-39.964,0c-0,12.264 -9.943,22.196 -22.213,22.196c-12.248,0 -22.198,-9.932 -22.198,-22.196m408.498,0l-44.394,0c-0,12.264 9.927,22.196 22.196,22.196c12.248,0 22.198,-9.932 22.198,-22.196Zm-53.294,0c-0,4.609 1.035,9.161 3.015,13.314l-37.077,-0c1.964,-4.153 2.998,-8.705 2.998,-13.314l31.064,0Zm-39.958,0c0,12.264 -9.933,22.196 -22.203,22.196c-12.248,0 -22.196,-9.932 -22.196,-22.196" style="fill-rule:nonzero;"/></g></svg>